PathFileType	4	(X/Y/Z)	C:\Users\alexw\Dropbox\ABI\Level_8_Lab\OpenSim Tools\ProcessingTrialDataFromVicon\Output\AB08\_12Mar_ss_12ms_01\_12Mar_ss_12ms_01.trc
DataRate	CameraRate	NumFrames	NumMarkers	Units	OrigDataRate	OrigDataStartFrame	OrigNumFrames
200.000000	200.000000	7	42	mm	200.000000	5715	6093
Frame#	Time	LASI			RASI			LPSI			RPSI			LTH1			LTH2			LTH3			LTH4			LMFC			LLFC			LTB1			LTB2			LTB3			LTB4			LMMAL			LLMAL			LCAL			LToe			LMT1			LMT5			RTH1			RTH2			RTH3			RTH4			RMFC			RLFC			RTB1			RTB2			RTB3			RTB4			RMMAL			RLMAL			RCAL			RToe			RMT1			RMT5			C7			T10			LACR1			RACR1			CLAV			RBack			
		X1	Y1	Z1	X2	Y2	Z2	X3	Y3	Z3	X4	Y4	Z4	X5	Y5	Z5	X6	Y6	Z6	X7	Y7	Z7	X8	Y8	Z8	X9	Y9	Z9	X10	Y10	Z10	X11	Y11	Z11	X12	Y12	Z12	X13	Y13	Z13	X14	Y14	Z14	X15	Y15	Z15	X16	Y16	Z16	X17	Y17	Z17	X18	Y18	Z18	X19	Y19	Z19	X20	Y20	Z20	X21	Y21	Z21	X22	Y22	Z22	X23	Y23	Z23	X24	Y24	Z24	X25	Y25	Z25	X26	Y26	Z26	X27	Y27	Z27	X28	Y28	Z28	X29	Y29	Z29	X30	Y30	Z30	X31	Y31	Z31	X32	Y32	Z32	X33	Y33	Z33	X34	Y34	Z34	X35	Y35	Z35	X36	Y36	Z36	X37	Y37	Z37	X38	Y38	Z38	X39	Y39	Z39	X40	Y40	Z40	X41	Y41	Z41	X42	Y42	Z42	

5715	28.565	352.80392	962.61029	-908.72931	599.83679	959.38599	-897.52582	412.17813	972.47333	-684.80634	535.37891	964.93384	-675.72815	336.53708	705.91248	-997.87152	329.90466	668.34399	-987.54773	380.33157	627.24542	-998.64459	361.53003	663.87964	-1000.73860	457.51846	523.48328	-961.12970	330.83362	516.19250	-941.52344	314.64447	410.53378	-927.05920	323.63150	326.90619	-917.76172	343.71399	326.46658	-967.84039	332.99478	365.13177	-960.86102	455.85812	119.40099	-934.01941	369.91370	111.05177	-915.42444	416.58344	53.85303	-838.44836	418.71323	42.74696	-1143.71690	453.95163	46.49532	-1054.70390	332.22498	41.20753	-1031.12320	639.36115	665.33710	-914.20135	638.10065	600.29895	-904.71082	677.82819	584.06897	-860.25751	677.98199	641.10498	-872.50323	562.21863	455.07639	-843.22491	676.43970	489.75858	-790.71765	677.95795	397.85062	-717.14648	662.35510	365.62698	-699.18799	645.46893	330.91553	-666.19000	667.54449	367.60254	-633.65198	535.08551	233.54587	-495.04117	614.41272	265.15253	-461.59824	545.31335	305.88959	-395.02362	591.42780	19.75183	-476.48102	546.24768	99.91090	-446.37982	655.66846	134.33356	-428.47751	438.53314	1474.90800	-729.25024	449.11588	1219.33200	-670.59344	269.61182	1435.86830	-792.03357	596.22461	1452.12960	-787.63617	438.73721	1408.73190	-883.53876	569.97314	1372.30960	-677.72528
5716	28.57	351.97803	963.63727	-908.33221	599.09308	960.54565	-897.20380	411.35397	973.54053	-684.45886	534.38275	965.70404	-675.19611	336.00470	705.55676	-995.42236	329.49384	667.92999	-985.43121	380.07336	627.05750	-995.63776	361.11542	663.55121	-997.90027	457.41757	523.41833	-956.24133	330.71219	516.22308	-937.42590	314.51559	410.22348	-921.33282	323.47031	326.79727	-911.98431	342.91373	326.07864	-961.85870	332.17346	364.82516	-955.19086	455.93439	119.46100	-928.11157	369.93719	111.04977	-909.45337	416.56769	53.94973	-832.40240	418.76254	42.66579	-1137.65210	453.56787	46.35172	-1048.63230	332.17902	41.15746	-1025.23650	639.44800	667.39294	-917.61792	638.80890	602.26355	-909.21844	678.31610	585.60236	-865.08057	678.27679	642.76611	-876.16876	562.96130	456.80359	-850.38440	677.65393	490.87021	-797.53912	678.85468	399.06955	-724.61151	662.99054	367.00140	-706.39172	645.65057	332.19409	-673.36945	668.42377	369.23245	-640.99994	535.28326	236.49112	-501.44363	614.68158	268.11667	-467.32227	545.43652	308.79401	-401.08032	591.70953	23.59790	-484.11801	546.28784	103.08274	-453.27829	656.10431	137.48199	-434.90955	437.85931	1476.00040	-729.13190	447.95221	1220.39860	-670.37079	269.11737	1437.18550	-792.45386	595.67712	1453.00120	-787.13330	438.44400	1409.81920	-883.41833	569.07208	1373.33750	-677.34088
5717	28.575	351.21741	964.66663	-908.06299	598.55396	961.74829	-896.94916	410.56516	974.53149	-683.97864	533.32397	966.44733	-674.58478	335.60403	705.19110	-992.88251	329.27005	667.72601	-982.62268	379.88992	626.81909	-992.46045	360.76880	663.27734	-995.04004	457.29822	523.45599	-951.69800	330.41101	516.17688	-933.12939	314.72318	410.40634	-916.29089	323.83725	326.86121	-906.55377	342.22888	325.85782	-956.63147	331.64896	364.61923	-949.68286	455.94611	119.39849	-922.27478	369.99530	111.03268	-903.42609	416.57764	54.01810	-826.31732	418.69073	42.47814	-1131.60030	453.91641	46.35759	-1042.61690	332.17389	41.07228	-1019.07320	640.24329	670.16968	-921.03711	639.43921	604.50073	-913.68451	678.96832	587.36090	-869.83569	678.65070	644.62122	-879.96033	563.22284	458.43890	-855.39056	678.81866	492.31317	-804.33679	679.62946	400.49286	-732.17426	663.54974	368.50092	-713.75043	646.02649	333.91418	-680.69586	669.16595	370.85162	-648.35992	534.99670	239.64380	-508.12085	614.85950	271.16418	-473.39621	545.54053	311.26184	-407.19028	591.74976	26.95603	-492.72205	546.31934	106.01548	-461.21320	656.27533	140.29716	-441.96036	437.18243	1477.07170	-729.07367	446.91721	1221.48010	-670.09900	268.63287	1438.56490	-792.83447	595.19379	1453.86050	-786.67609	438.22479	1410.95130	-883.31305	568.20520	1374.38650	-676.94092
5718	28.58	350.43539	965.54810	-907.77911	598.10870	963.02576	-896.63666	409.69135	975.63208	-683.65186	532.30286	967.07983	-673.90405	335.34503	704.83960	-990.34998	328.82315	667.56549	-979.26147	379.71762	626.68994	-989.38104	360.62622	663.02185	-992.12219	457.08160	523.44904	-947.31921	330.15866	516.11688	-928.67737	314.48764	410.25690	-910.89886	323.77591	326.78610	-900.71271	341.61707	325.73001	-950.77924	331.03418	364.37149	-944.00238	455.90082	119.53930	-916.33063	370.02979	111.07939	-897.32037	416.60693	54.11005	-820.22021	418.67068	42.35705	-1125.52260	453.95242	46.29769	-1036.51170	332.08798	41.04239	-1012.98900	641.05847	672.96350	-924.53625	640.12897	606.75702	-918.14197	680.20483	589.31689	-874.49811	678.96967	646.69678	-883.75983	563.43683	460.51639	-862.91913	679.98407	493.96704	-811.15729	679.79877	401.88495	-739.57928	664.07611	370.19958	-721.10999	646.44104	335.78339	-687.84656	669.80334	372.63876	-655.77411	534.98816	242.90736	-515.12781	615.00549	274.06287	-479.82840	545.52960	313.25098	-413.32764	591.87036	29.93855	-502.09720	546.40631	108.57748	-469.74121	656.37585	142.53783	-449.61020	436.54556	1478.11050	-729.05133	445.99011	1222.58870	-669.81427	268.24048	1439.86430	-793.31006	594.75549	1454.72530	-786.22766	437.88733	1411.97950	-883.18158	567.37860	1375.36350	-676.59235
5719	28.585	349.55481	966.42535	-907.46246	597.85297	964.32416	-896.36102	408.92035	976.73187	-683.19122	531.36548	967.74170	-673.22522	335.27179	704.51532	-987.79858	328.88959	667.17310	-977.00342	379.57996	626.42188	-986.03601	360.51413	662.72607	-989.19971	456.79343	523.47363	-943.06995	329.99667	516.07599	-924.11249	314.30276	410.28891	-905.59802	323.65305	327.01764	-895.26599	341.40747	325.55530	-945.35461	330.72141	364.32181	-938.83185	455.87570	119.60340	-910.43402	369.98520	111.15142	-891.22540	416.65430	54.21239	-814.10382	418.74304	42.37580	-1119.55440	453.92770	46.36678	-1030.49230	332.01483	41.05783	-1006.89940	641.67621	675.58905	-927.46478	640.69330	609.21167	-922.41022	680.99292	591.30212	-879.16571	679.30530	648.86249	-887.43878	563.42505	462.98715	-868.90375	681.04749	495.86258	-817.87732	680.88812	403.55975	-747.14941	664.54272	371.88571	-728.46094	646.89545	337.81335	-695.03064	670.58179	374.53912	-663.14764	535.50269	245.87875	-522.85748	615.15015	276.43701	-486.56091	545.58618	314.69254	-419.56403	591.90924	32.56064	-512.11298	546.30438	110.83932	-478.82080	656.42102	144.42276	-457.82043	435.90387	1479.17600	-728.99133	445.02823	1223.71030	-669.48364	267.74323	1441.17360	-793.73346	594.30853	1455.55400	-785.77051	437.74457	1413.05800	-883.05774	566.49268	1376.31480	-676.12781
5720	28.59	348.83176	967.22430	-907.10565	597.61108	965.58893	-895.94354	408.12387	977.76056	-682.79407	530.31915	968.45923	-672.56018	335.07178	704.12628	-985.09204	328.03668	666.86719	-973.49188	379.56387	626.08588	-982.76855	360.44644	662.42078	-986.16644	456.44482	523.40912	-939.14783	329.79633	516.05206	-919.54047	314.13477	410.44705	-900.63635	323.58011	327.06631	-889.76807	340.95892	325.32214	-940.13019	330.58426	364.24908	-933.60266	455.81384	119.76346	-904.44305	369.95386	111.20761	-885.16071	416.58850	54.29081	-808.05396	418.62769	42.25612	-1113.47050	453.95074	46.32606	-1024.39070	332.27206	40.79505	-1000.69950	641.51270	678.16162	-930.86230	641.05298	611.90967	-926.44946	681.55884	593.33850	-883.73462	679.67267	651.09137	-891.17511	563.41138	465.55392	-874.61279	682.01215	497.87839	-824.50043	681.51648	405.11478	-754.38245	665.04449	373.61673	-735.70331	647.36389	339.70190	-702.12683	671.28088	376.42233	-670.38788	535.69647	248.35863	-530.50879	615.30768	278.24045	-493.67029	545.85919	315.63522	-425.99231	591.91107	34.88914	-522.56818	547.03461	112.69381	-488.44147	656.46277	145.77695	-466.57117	435.35162	1480.26460	-728.87854	444.15610	1224.85110	-669.17755	267.39908	1442.49790	-794.15753	593.95172	1456.37720	-785.30304	437.60309	1414.06810	-882.93604	565.62183	1377.28380	-675.69812
5721	28.595	347.92740	967.80267	-906.57037	597.52777	966.92096	-895.57703	407.37479	978.93994	-682.33972	529.49811	969.17334	-671.92456	334.89133	703.73920	-982.33771	327.78741	666.51489	-970.38672	379.45139	625.79272	-979.40686	360.27054	661.93329	-983.09198	455.62674	523.04675	-935.02570	329.62024	516.13989	-915.11212	314.06055	410.51437	-895.80817	323.30972	327.32126	-884.62457	340.97070	325.37241	-934.76105	330.47186	364.14560	-928.40131	455.76678	119.85464	-898.47559	369.96741	111.27575	-879.12549	416.59683	54.32191	-802.03027	418.68948	42.23976	-1107.34160	453.58414	46.41913	-1018.33120	331.95972	40.98021	-994.71411	641.52734	680.89856	-934.04559	641.52979	614.61627	-930.65546	682.36267	595.79993	-888.32452	680.07794	653.45520	-894.89160	563.34650	468.25134	-880.15918	682.80304	500.00793	-831.08423	681.73694	406.77869	-761.71179	665.70721	375.41180	-742.96014	648.00385	341.62122	-709.31055	671.52563	378.43784	-677.38989	535.71710	250.38019	-538.19373	615.48486	279.67538	-501.04874	546.12506	316.12866	-432.49731	591.66650	36.73063	-533.38428	546.86810	114.12966	-498.08887	656.51599	146.67854	-475.66302	434.81491	1481.31050	-728.79346	443.35406	1226.11980	-667.94501	267.02213	1443.79660	-794.58020	593.61774	1457.21390	-784.81293	437.43912	1415.04350	-882.79053	564.75464	1378.25510	-675.27075
